# xmcd
#
# Track frame offsets:
#	151
#	11691
#	26096
#	40431
#	55584
#	65863
#	79498
#	90916
#	106213
#	118227
#	130374
#	139301
#	152692
#	164699
#	175713
#	186528
#	197746
#	210656
#	222402
#	233862
#	246964
#	258585
#	272479
#	283796
#	297287
#	309786
#
# Disc length: 4295 seconds
#
# Revision: 1
# Processed by: cddbd v1.5.1PL0 Copyright (c) Steve Scherf et al.
# Submitted via: audiograbber 1.83.01
#
DISCID=9010c51a
DTITLE=Orion - Down In Mississippi
DYEAR=1900
DGENRE=
TTITLE0=Save The Last Dance For Me
TTITLE1=I'm Saving Up My Pennies
TTITLE2=100 Pounds Of Cly
TTITLE3=Morning Noon And Night
TTITLE4=Honky Tonk Heaven
TTITLE5=I'm Starting Over
TTITLE6=Listen To Dady
TTITLE7=Down In Mississippi
TTITLE8=You're Never Too Old To R'n'R
TTITLE9=Sweet Missisippi Memories
TTITLE10=Back On The Street Again
TTITLE11=The Way My Dog Loves Me
TTITLE12=He's Gone But Not Forgotten
TTITLE13=Off The Deep End
TTITLE14=Heaven Tonight
TTITLE15=This Is A Hold-Up Baby
TTITLE16=A Little Bit Of Devil
TTITLE17=Two Loving Shadows
TTITLE18=Midnight Rendezvous
TTITLE19=Take It From Me
TTITLE20=I Use Her To Remind Me
TTITLE21=My Baby's Out Of Sight
TTITLE22=There You Go
TTITLE23=Midnight Til' Morning
TTITLE24=Mr Me Misses You
TTITLE25=Yo're Stealing My Wife
EXTD=
EXTT0=
EXTT1=
EXTT2=
EXTT3=
EXTT4=
EXTT5=
EXTT6=
EXTT7=
EXTT8=
EXTT9=
EXTT10=
EXTT11=
EXTT12=
EXTT13=
EXTT14=
EXTT15=
EXTT16=
EXTT17=
EXTT18=
EXTT19=
EXTT20=
EXTT21=
EXTT22=
EXTT23=
EXTT24=
EXTT25=
PLAYORDER=
